<?xml version="1.0" standalone="no"?>
<!DOCTYPE svg PUBLIC "-//W3C//DTD SVG 20010904//EN"
 "http://www.w3.org/TR/2001/REC-SVG-20010904/DTD/svg10.dtd">
<svg version="1.0" xmlns="http://www.w3.org/2000/svg"
 width="700.000000pt" height="700.000000pt" viewBox="0 0 700.000000 700.000000"
 preserveAspectRatio="xMidYMid meet">
<metadata>
Created by potrace 1.14, written by Peter Selinger 2001-2017
</metadata>
<g transform="translate(0.000000,700.000000) scale(0.100000,-0.100000)"
fill="#000000" stroke="none">
<path d="M598 5761 c-1 -5 -86 -96 -188 -201 -102 -106 -198 -207 -215 -225
-16 -17 -43 -46 -59 -63 l-29 -32 48 -45 c27 -25 50 -45 52 -45 2 0 21 -17 43
-39 21 -21 42 -36 46 -32 4 3 4 0 0 -6 -4 -8 -1 -13 9 -13 8 0 18 -7 21 -15 3
-8 14 -17 25 -20 10 -4 19 -12 19 -19 0 -7 11 -18 25 -24 26 -12 31 -39 10
-54 -6 -5 -5 -8 3 -9 33 -4 37 -6 35 -17 -2 -7 3 -11 10 -9 6 1 11 -4 9 -11
-1 -8 2 -11 7 -8 5 4 12 2 16 -4 4 -6 11 -7 17 -4 7 5 9 1 5 -9 -7 -19 18 -44
28 -27 3 6 11 7 17 4 7 -4 8 -2 4 5 -6 9 -11 9 -21 1 -9 -8 -15 -8 -20 0 -3 5
-1 10 6 10 8 0 5 7 -6 20 -10 11 -21 17 -26 15 -4 -3 -10 -1 -14 5 -3 5 0 10
7 10 13 0 59 -35 121 -92 17 -16 34 -28 38 -28 5 0 9 -4 9 -10 0 -5 -13 -2
-29 8 -16 9 -27 21 -24 26 4 5 1 6 -7 1 -9 -5 -11 -4 -6 3 4 7 2 12 -3 12 -6
0 -11 -5 -11 -11 0 -8 -6 -7 -17 2 -16 13 -17 12 -5 -3 8 -10 19 -16 25 -15 7
1 11 -3 10 -10 -2 -8 4 -10 14 -6 9 4 14 2 10 -3 -3 -6 -1 -16 5 -24 8 -12 9
-11 4 3 -4 12 -2 17 6 14 7 -2 12 -10 10 -16 -2 -9 3 -9 18 -1 14 8 20 8 20 0
0 -6 6 -8 13 -4 6 4 9 4 5 0 -8 -9 14 -36 24 -30 3 2 16 -8 28 -23 12 -16 24
-26 27 -23 3 3 11 -4 17 -15 14 -25 28 -35 38 -29 4 3 8 -4 8 -15 0 -12 -5
-21 -11 -21 -5 0 -8 4 -4 9 7 12 -29 33 -40 23 -5 -4 -5 -2 -2 5 8 13 -48 74
-59 64 -4 -3 -3 1 1 9 8 13 7 13 -8 1 -9 -7 -17 -16 -17 -19 0 -3 3 -3 6 0 3
4 21 -11 41 -33 19 -21 38 -38 41 -38 20 3 32 -2 29 -13 -1 -6 9 -17 23 -25
14 -7 24 -19 22 -25 -2 -7 0 -9 4 -5 12 12 14 38 2 31 -7 -4 -8 -2 -4 4 5 8 2
10 -9 6 -11 -5 -14 -2 -9 10 6 16 8 16 24 1 10 -9 17 -26 15 -37 -4 -20 20
-53 39 -53 6 -1 10 -7 8 -14 -1 -7 2 -10 7 -7 5 3 12 -1 15 -10 4 -10 12 -14
22 -10 12 5 15 2 10 -11 -4 -10 -4 -15 -1 -12 3 3 33 -20 67 -52 33 -33 69
-59 80 -59 11 0 17 -4 13 -9 -7 -12 35 -42 48 -34 6 4 8 0 4 -10 -4 -11 1 -21
14 -28 19 -10 20 -9 9 10 -6 12 -7 21 -3 21 4 0 -2 6 -12 14 -11 8 -26 12 -35
9 -9 -3 -11 -2 -4 4 11 9 -12 37 -33 39 -29 2 -33 5 -30 16 1 7 -4 13 -10 14
-7 1 -17 2 -21 3 -15 2 -9 31 5 31 8 0 11 -5 7 -12 -5 -8 -2 -9 9 -5 10 4 16
2 14 -6 -1 -7 3 -11 10 -10 6 2 21 -9 31 -22 11 -14 23 -25 26 -25 14 0 65
-54 59 -63 -3 -6 -1 -7 6 -3 6 4 18 1 26 -8 19 -18 19 -23 0 -23 -8 0 -12 4
-9 9 3 4 0 8 -5 8 -6 0 -11 -7 -11 -16 0 -10 6 -14 15 -11 8 4 17 2 20 -3 4
-6 0 -10 -7 -10 -8 0 -6 -5 5 -11 24 -14 34 -4 17 16 -8 10 -9 15 -1 15 6 0
11 -4 11 -10 0 -5 3 -9 8 -7 4 1 8 -2 9 -7 1 -5 12 -14 24 -20 23 -12 28 -28
10 -34 -6 -2 -11 3 -11 11 0 17 -27 30 -35 17 -3 -5 5 -16 19 -25 18 -12 30
-14 43 -6 16 8 25 3 51 -25 17 -19 34 -34 37 -34 2 0 14 -8 25 -17 20 -18 29
-50 10 -38 -6 4 -7 11 -4 17 4 7 2 8 -5 4 -6 -4 -14 -1 -17 8 -3 8 -14 18 -25
21 -11 4 -17 10 -14 15 10 16 -13 20 -25 5 -7 -8 -10 -16 -6 -16 3 -1 11 -3
16 -4 6 -1 15 -3 21 -4 5 0 8 -5 5 -10 -5 -8 30 -46 43 -46 3 0 5 -3 3 -8 -1
-4 1 -6 5 -6 20 3 34 -2 29 -10 -3 -5 2 -15 11 -22 10 -8 14 -9 10 -2 -4 6 -3
14 3 18 6 4 8 11 4 16 -3 5 -10 7 -15 4 -5 -4 -9 -1 -9 5 0 6 -4 8 -10 5 -5
-3 -7 0 -4 9 9 24 55 -22 50 -50 -5 -25 28 -63 39 -45 10 17 29 13 53 -9 26
-24 28 -37 7 -37 -9 0 -14 6 -11 14 4 9 1 11 -6 7 -7 -5 -8 -3 -3 6 6 9 4 11
-5 5 -9 -5 -11 -4 -6 3 4 8 2 10 -8 6 -12 -5 -10 -11 11 -35 23 -26 28 -27 42
-15 14 13 19 12 38 -4 12 -9 19 -20 16 -24 -4 -3 0 -6 7 -6 15 0 -10 -24 -140
-133 -46 -40 -191 -162 -321 -272 -130 -110 -316 -267 -414 -350 -98 -82 -183
-155 -189 -160 -6 -6 -36 -31 -66 -56 -30 -25 -120 -101 -200 -169 -80 -68
-175 -148 -212 -179 -38 -30 -68 -58 -68 -61 0 -3 23 -30 50 -60 44 -49 67
-92 40 -75 -6 4 -7 11 -4 17 5 7 2 8 -6 3 -8 -5 -11 -4 -6 3 3 6 2 13 -4 17
-24 15 -7 -25 19 -48 17 -14 27 -28 23 -32 -4 -5 -1 -5 6 -1 7 4 15 1 18 -8 3
-9 11 -16 16 -16 5 0 -1 13 -14 29 -13 15 -27 26 -32 23 -5 -3 -6 0 -2 6 5 8
34 -16 82 -65 99 -103 116 -123 104 -123 -5 0 -14 9 -20 20 -6 11 -15 18 -19
16 -4 -3 -13 6 -20 20 -6 15 -16 22 -23 18 -7 -5 -8 -3 -3 6 5 9 4 11 -4 6 -6
-4 -9 -12 -5 -17 3 -6 9 -8 12 -5 3 3 10 -4 17 -17 6 -12 16 -21 22 -20 6 1
16 -8 23 -21 8 -15 18 -22 30 -19 17 5 50 -30 50 -52 0 -5 -5 -3 -11 5 -6 8
-9 10 -7 4 2 -7 32 -43 67 -82 63 -70 96 -96 84 -67 -3 8 -10 12 -16 8 -6 -4
-7 -1 -2 7 5 8 4 11 -2 7 -6 -4 -15 5 -22 19 -6 14 -15 23 -20 20 -5 -3 -11 1
-15 9 -10 27 12 16 53 -27 39 -42 49 -62 34 -71 -5 -2 -2 -2 5 0 8 2 16 -6 19
-18 5 -16 8 -18 15 -7 7 9 8 6 5 -10 -3 -13 -3 -21 0 -18 4 3 12 1 20 -6 11
-9 12 -7 7 7 -5 12 -4 16 3 12 6 -4 18 -1 26 7 8 8 18 12 22 8 4 -4 5 0 3 8
-2 8 3 15 10 16 6 1 15 2 19 3 3 0 -3 11 -14 23 -19 22 -29 63 -12 52 4 -2 10
0 14 6 7 12 25 4 25 -11 0 -6 -4 -8 -8 -5 -4 2 -14 0 -22 -5 -11 -8 -12 -12
-3 -16 7 -2 15 -4 19 -3 4 1 11 -4 15 -12 7 -10 11 -7 15 10 4 15 12 21 21 18
8 -4 11 -1 8 5 -4 6 2 13 13 16 11 3 23 12 26 20 3 8 10 12 15 8 6 -3 8 3 6
14 -2 11 3 22 10 25 10 3 12 0 9 -12 -3 -9 1 -7 8 6 8 12 16 20 19 17 3 -3 14
5 25 17 10 12 13 18 7 14 -7 -4 -13 -3 -13 3 0 15 18 23 25 10 5 -7 17 -1 36
17 25 24 32 53 8 39 -5 -3 -6 1 -3 10 6 14 9 14 28 -2 20 -18 20 -17 6 1 -14
18 -13 19 3 13 12 -5 26 1 42 17 13 13 26 22 28 19 3 -2 13 6 23 19 11 13 33
34 51 46 22 15 31 29 28 42 -2 11 0 20 6 20 5 0 9 -6 9 -12 1 -7 9 -3 19 9 10
12 22 19 26 15 5 -4 5 -1 1 6 -4 7 -12 10 -17 7 -5 -4 -9 -2 -9 4 0 15 18 23
25 11 9 -15 25 -12 25 6 0 8 4 12 10 9 6 -4 7 1 3 12 -6 16 -5 17 12 3 10 -8
16 -10 13 -5 -3 6 25 33 62 60 42 31 64 53 56 57 -6 4 -8 8 -3 9 4 1 10 2 15
3 20 4 30 18 25 34 -6 14 -4 15 9 4 14 -11 18 -10 30 7 8 12 18 18 23 13 5 -4
5 -1 1 6 -4 7 -11 10 -16 7 -5 -3 -8 4 -7 15 1 10 7 22 14 24 18 7 44 -4 37
-16 -3 -5 -11 -4 -20 3 -8 7 -14 7 -14 1 0 -23 30 -20 51 6 11 15 24 26 27 25
12 -3 42 29 42 44 0 8 4 12 10 8 5 -3 26 10 47 30 21 20 31 33 22 30 -10 -4
-16 0 -16 10 0 18 2 18 29 4 13 -7 18 -7 14 -1 -3 6 2 13 11 16 10 3 41 27 68
53 28 26 54 46 58 45 5 -1 6 2 2 8 -3 5 -2 10 3 10 15 0 56 40 48 47 -4 4 -10
3 -14 -3 -4 -6 -15 -10 -24 -8 -10 1 -18 -2 -18 -8 0 -6 8 -7 18 -4 14 5 14 4
-2 -9 -28 -21 -32 -19 -32 14 0 26 3 29 25 26 14 -2 37 4 49 12 23 14 24 14
18 -9 -7 -22 -6 -22 8 2 9 14 15 21 16 16 0 -5 7 -3 15 4 9 7 14 19 11 26 -3
7 1 15 9 18 10 3 12 0 9 -12 -5 -15 -4 -15 6 1 6 9 9 21 5 26 -3 5 -1 13 5 16
6 4 9 3 8 -2 -2 -4 2 -8 7 -8 6 0 9 8 9 18 -1 13 4 16 17 12 12 -4 21 -1 25 9
3 9 10 13 15 10 5 -3 6 3 2 12 -4 11 -3 15 5 10 6 -3 26 7 44 23 27 24 30 31
19 44 -11 14 -9 16 8 14 15 -1 20 -6 16 -17 -4 -11 -2 -11 8 2 8 10 18 14 22
10 5 -4 5 -2 2 5 -4 6 -1 14 5 16 10 4 10 6 1 6 -18 1 -16 18 2 18 8 0 15 -5
15 -10 0 -6 9 1 21 14 11 13 25 25 30 25 5 1 12 2 15 3 4 0 0 8 -7 17 -12 15
-11 16 8 10 16 -5 26 0 41 19 11 14 25 25 30 25 6 0 14 9 17 20 4 11 10 18 15
15 5 -3 17 6 28 20 11 13 23 21 27 17 3 -4 5 0 3 8 -1 8 3 14 11 15 8 0 16 7
18 15 4 13 3 13 -6 0 -6 -8 -11 -13 -12 -10 0 3 -2 12 -4 21 -2 12 4 16 21 15
17 -1 23 -6 19 -16 -3 -8 3 -6 12 6 10 11 45 44 79 72 52 45 77 82 54 82 -4 0
-7 7 -7 15 0 8 5 11 10 8 6 -4 7 -1 2 7 -5 9 -4 11 4 6 6 -4 9 -11 6 -16 -3
-4 -2 -15 1 -24 5 -14 9 -13 26 6 11 13 25 22 32 20 6 -1 3 4 -6 11 -21 17
-12 30 12 17 13 -7 25 -1 50 25 19 19 31 38 27 42 -4 3 -7 1 -7 -5 0 -7 -8 -5
-18 6 -11 9 -17 20 -15 24 2 4 -4 5 -14 1 -10 -3 -15 -3 -11 2 4 4 3 14 -2 20
-8 9 -6 14 5 19 26 10 16 32 -32 72 -27 21 -53 43 -59 49 -6 5 -37 33 -69 60
-32 28 -63 55 -69 60 -6 6 -108 94 -226 195 -118 101 -217 187 -220 190 -3 3
-34 30 -70 60 -36 30 -70 60 -76 65 -35 32 -258 224 -694 600 -457 394 -560
482 -620 536 -54 48 -75 58 -82 40z m-122 -853 c-6 -4 -18 0 -27 8 -8 8 -18
11 -22 8 -4 -5 -4 9 2 34 1 2 14 -7 29 -20 18 -14 25 -26 18 -30z m274 -253
c13 -14 21 -25 18 -25 -2 0 -15 11 -28 25 -13 14 -21 25 -18 25 2 0 15 -11 28
-25z m200 -156 c0 -6 4 -8 9 -5 5 3 26 -10 47 -29 21 -19 42 -35 47 -35 5 0 4
-6 -2 -13 -6 -8 -10 -16 -8 -18 5 -10 -29 30 -47 55 -10 14 -23 23 -28 20 -11
-7 -44 36 -40 51 2 6 -2 5 -9 -2 -10 -10 -15 -9 -25 4 -6 10 -10 23 -7 30 5
13 63 -40 63 -58z m501 -446 c13 -16 12 -17 -3 -4 -10 7 -18 15 -18 17 0 8 8
3 21 -13z m128 -72 c8 -5 11 -16 7 -27 -5 -13 -9 -15 -18 -6 -13 13 -20 42
-10 42 4 0 13 -4 21 -9z m1226 -190 c-1 -10 -11 -15 -24 -15 -12 1 -19 -1 -16
-4 2 -3 0 -11 -6 -19 -11 -12 -1 -18 24 -14 4 1 3 -8 -3 -19 -6 -11 -14 -21
-18 -21 -4 -1 -17 -3 -30 -4 -27 -3 -55 -25 -32 -25 7 0 10 -3 7 -6 -3 -4 -2
-14 3 -24 6 -12 3 -21 -13 -35 -12 -10 -41 -35 -64 -55 -38 -33 -83 -48 -83
-27 0 4 0 12 0 17 0 6 5 10 11 10 5 0 8 -4 4 -9 -3 -6 3 -9 13 -8 10 0 19 6
19 13 0 7 -5 10 -12 8 -6 -3 -11 5 -12 17 -1 16 1 18 11 10 7 -6 16 -8 19 -4
7 6 11 -13 7 -32 -1 -5 2 -6 7 -2 8 8 9 12 12 38 0 6 8 8 17 5 10 -4 13 -2 8
6 -5 7 -3 8 6 3 9 -5 11 -4 6 3 -5 9 -13 9 -26 2 -10 -6 -21 -6 -24 -1 -3 4 6
13 20 19 20 10 26 9 30 -3 4 -8 11 -12 16 -9 6 4 5 10 -3 16 -11 8 -10 9 4 4
15 -5 16 -3 7 14 -6 11 -8 20 -5 20 4 0 3 4 0 10 -9 15 -62 -16 -70 -40 -6
-18 -9 -19 -23 -8 -11 9 -14 9 -9 1 5 -7 0 -17 -12 -25 -14 -8 -17 -16 -10
-24 6 -8 4 -14 -7 -18 -12 -5 -15 -2 -10 11 6 17 5 17 -8 0 -8 -10 -12 -27 -9
-37 7 -24 0 -25 -18 -3 -8 9 -9 14 -3 10 7 -4 10 2 8 18 -1 16 3 25 12 25 8 0
17 7 20 15 4 8 10 13 14 10 4 -3 10 4 13 15 4 15 10 18 24 13 10 -3 15 -3 11
1 -8 9 79 93 105 102 9 3 15 10 12 15 -3 5 1 6 9 3 10 -4 16 -1 16 7 0 17 27
46 44 46 8 0 13 -7 11 -16z m39 -33 c-4 -6 -10 -5 -15 3 -7 11 -9 11 -9 1 0
-7 -5 -10 -12 -6 -6 4 -8 3 -4 -4 4 -7 -1 -10 -14 -9 -24 2 -21 19 4 23 10 1
20 5 23 8 9 8 33 -6 27 -16z m-4 -33 c-21 -22 -50 -24 -50 -3 0 5 4 7 9 4 5
-3 11 0 14 7 2 7 15 13 27 14 l22 2 -22 -24z m-70 -44 c0 -5 -6 -14 -14 -20
-12 -10 -13 -8 -9 8 5 21 23 30 23 12z m-96 -43 c-4 -6 -10 -5 -15 3 -5 9 -9
10 -9 3 0 -7 -7 -14 -15 -18 -19 -7 -19 -1 0 18 16 16 49 11 39 -6z m-65 -42
c11 -14 6 -15 -27 -7 -4 1 8 21 12 21 2 0 9 -6 15 -14z m-115 -49 c-2 -7 5
-23 16 -35 11 -12 16 -22 10 -22 -5 0 -10 -5 -10 -11 0 -5 6 -7 13 -4 6 4 2
-2 -10 -13 -12 -11 -20 -22 -17 -24 2 -3 -2 -11 -11 -18 -10 -8 -15 -9 -15 -1
0 6 6 11 13 11 8 0 7 3 -3 9 -8 6 -18 7 -22 5 -10 -6 -11 10 -1 19 3 4 13 1
22 -6 14 -11 14 -10 2 6 -8 9 -11 20 -7 24 3 4 12 -1 19 -11 12 -16 13 -16 13
3 0 11 -2 18 -4 16 -3 -2 -14 0 -24 6 -14 8 -23 8 -31 0 -8 -8 -8 -11 1 -11 7
0 12 -5 12 -11 0 -8 -5 -8 -15 1 -10 9 -15 9 -15 1 0 -6 6 -11 13 -11 6 -1 1
-7 -12 -14 -15 -8 -20 -16 -12 -20 6 -4 11 -2 11 5 0 8 3 9 13 0 8 -6 17 -7
22 -3 4 4 0 -8 -9 -26 -10 -19 -20 -31 -23 -28 -4 3 -14 -8 -24 -24 -11 -17
-23 -30 -28 -30 -16 0 -22 18 -10 26 8 5 9 3 4 -7 -5 -8 1 -5 14 5 14 13 18
23 11 30 -15 15 -12 30 3 17 17 -13 28 -5 20 16 -5 12 -7 12 -15 1 -7 -10 -8
-8 -4 5 4 12 2 16 -6 11 -6 -4 -8 -3 -5 3 3 5 -1 10 -9 10 -10 0 -11 -4 -4
-11 17 -17 11 -29 -7 -15 -11 10 -14 10 -9 2 4 -7 3 -13 -2 -13 -4 0 -16 -15
-25 -32 -10 -20 -15 -24 -11 -10 3 12 1 22 -4 22 -5 0 -9 -6 -10 -12 0 -7 -3
-24 -6 -37 -3 -13 -1 -31 5 -40 8 -12 9 -10 4 9 -5 19 -4 22 4 10 8 -11 11
-11 12 -2 1 6 3 17 4 22 1 6 3 15 4 21 0 5 6 7 11 4 7 -4 7 -13 0 -24 -6 -12
-5 -22 3 -31 9 -10 9 -11 -1 -5 -9 4 -19 -1 -28 -13 -8 -12 -22 -19 -33 -17
-11 2 -27 -3 -38 -11 -10 -8 -13 -13 -6 -12 6 2 10 -1 10 -7 -3 -13 -26 -16
-33 -3 -4 6 -10 5 -16 -3 -8 -12 -10 -12 -15 0 -5 11 -7 11 -14 0 -7 -12 -9
-12 -9 0 0 11 -4 9 -15 -5 -14 -18 -14 -18 -8 3 3 12 12 28 19 34 12 10 13 8
8 -6 -5 -13 -4 -16 4 -11 7 4 12 16 12 26 0 10 5 22 10 25 11 7 9 -23 -3 -42
-5 -8 -4 -13 2 -13 6 0 11 6 12 13 0 9 2 9 6 -1 4 -10 9 -8 19 6 9 14 23 19
44 17 17 -1 28 0 25 4 -4 3 -12 6 -18 6 -5 0 -12 6 -15 14 -3 8 0 11 6 7 12
-7 10 20 -3 31 -4 4 -5 2 0 -6 6 -10 4 -12 -5 -6 -9 6 -11 4 -5 -5 6 -9 4 -11
-5 -5 -9 6 -11 4 -5 -5 5 -8 4 -11 -3 -6 -6 3 -14 1 -18 -5 -5 -8 -3 -9 6 -4
8 5 11 3 9 -4 -5 -15 -22 -16 -27 -2 -5 15 90 102 106 96 8 -3 12 0 10 7 -5
13 32 55 45 50 4 -1 10 5 13 13 3 8 10 12 15 9 5 -3 9 2 9 10 0 9 4 16 8 16 5
0 22 13 38 30 33 34 35 35 28 17z m-118 -146 c-3 -5 1 -12 10 -15 18 -7 12
-19 -11 -22 -21 -3 -29 14 -15 31 14 16 25 20 16 6z m-240 -178 c-3 -21 -9
-27 -29 -28 -15 -1 -24 2 -21 7 3 4 11 8 18 8 8 0 16 9 19 20 8 29 16 24 13
-7z m54 -5 c0 -5 4 -7 9 -3 5 3 13 0 16 -5 8 -13 -24 -52 -36 -44 -5 3 -9 -1
-9 -8 0 -11 -2 -11 -9 0 -6 10 -11 5 -21 -17 -13 -32 -24 -39 -35 -21 -11 17
-24 11 -20 -10 2 -11 1 -19 -3 -19 -21 3 -32 -3 -32 -18 0 -12 -3 -14 -10 -7
-8 8 -2 21 19 43 35 38 33 73 -2 40 -12 -11 -23 -24 -23 -30 -1 -5 -2 -14 -3
-20 0 -5 -5 -8 -11 -4 -5 3 -6 13 -3 23 6 16 6 16 -10 0 -10 -10 -14 -24 -11
-35 6 -16 5 -16 -10 2 -17 20 -17 20 -7 -2 16 -33 13 -38 -11 -17 -12 10 -18
13 -13 5 5 -9 4 -12 -3 -7 -7 4 -9 -1 -7 -15 3 -15 0 -19 -10 -15 -8 3 -17 0
-21 -6 -5 -7 -2 -8 6 -3 8 5 11 4 7 -2 -3 -5 4 -9 16 -8 12 2 21 8 19 14 -2 9
3 9 18 1 17 -9 19 -8 13 7 -6 15 -4 16 8 6 12 -10 15 -8 16 10 2 17 0 19 -7 7
-5 -8 -10 -10 -10 -5 0 6 4 16 9 23 11 17 19 -1 17 -38 -1 -18 -7 -25 -21 -25
-11 -1 -31 -7 -44 -14 -14 -8 -21 -9 -17 -2 4 6 2 11 -3 11 -6 0 -11 -5 -11
-11 0 -6 -6 -9 -12 -6 -7 2 -12 10 -11 16 2 6 -2 11 -7 11 -9 0 -15 -21 -11
-42 0 -5 -4 -8 -10 -8 -6 0 -7 -5 -2 -12 12 -21 14 -48 2 -48 -5 0 -8 -4 -4
-9 3 -5 1 -12 -4 -15 -18 -11 -24 17 -7 29 15 11 15 13 1 19 -13 4 -14 10 -5
26 6 11 7 19 1 18 -5 -2 -9 2 -9 7 -1 6 6 9 15 7 9 -2 12 1 8 7 -6 10 20 45
34 47 3 0 35 28 71 62 35 33 69 60 75 59 5 -1 9 3 8 8 -1 6 11 10 27 10 19 1
26 -3 23 -12 -3 -7 -10 -10 -17 -6 -7 4 -7 1 1 -9 7 -8 11 -17 8 -20 -3 -2 2
-5 10 -5 8 0 15 4 15 9 0 4 -5 8 -11 8 -5 0 -7 5 -3 11 4 8 9 7 16 -2 7 -11 8
-10 4 4 -7 22 18 64 39 64 8 0 15 -4 15 -9z m-126 -93 c-18 -27 -25 -32 -21
-13 2 11 26 37 35 38 1 0 -5 -11 -14 -25z m-90 -73 c3 -5 -1 -9 -9 -9 -8 0
-12 4 -9 9 3 4 7 8 9 8 2 0 6 -4 9 -8z m-124 -94 c0 -5 -6 -6 -12 -2 -7 4 -5
-2 5 -13 12 -14 15 -23 7 -28 -6 -4 -8 -15 -5 -25 6 -20 -50 -75 -66 -64 -5 3
-9 0 -9 -6 0 -7 -5 -10 -12 -8 -15 5 -18 45 -2 45 7 0 10 -7 7 -16 -4 -14 -4
-14 6 -1 9 12 11 13 11 1 0 -8 3 -11 6 -8 4 4 1 13 -6 22 -8 9 -8 15 -2 15 6
0 14 -4 17 -10 10 -16 28 -11 21 6 -3 8 -2 12 3 9 5 -3 13 0 17 6 4 7 3 10 -2
7 -5 -4 -10 5 -11 19 0 16 2 21 7 13 5 -8 9 -9 14 -1 6 10 -6 15 -26 12 -5 0
-8 5 -8 12 -1 7 -7 4 -15 -7 -8 -10 -12 -23 -9 -27 2 -4 -5 -13 -16 -19 -11
-6 -18 -15 -15 -20 3 -6 0 -7 -8 -4 -8 3 -18 0 -22 -5 -3 -6 -11 -8 -17 -5 -7
5 -8 2 -3 -6 5 -8 4 -11 -2 -7 -6 4 -16 0 -22 -7 -8 -10 -9 -16 -1 -21 5 -3
10 -11 10 -18 0 -8 -3 -8 -12 1 -18 18 -30 14 -23 -7 3 -11 1 -22 -4 -26 -7
-3 -8 0 -5 9 7 18 -11 22 -22 4 -5 -7 -3 -8 6 -3 9 5 11 4 6 -4 -4 -6 -12 -9
-17 -6 -5 4 -9 1 -9 -5 0 -6 7 -10 16 -8 10 2 19 -2 21 -9 5 -14 -14 -12 -43
5 -19 10 -21 9 -18 -14 2 -19 -1 -24 -12 -20 -9 3 -12 1 -9 -4 3 -6 1 -11 -4
-11 -6 -1 -16 -2 -23 -3 -6 0 -13 -8 -15 -16 -4 -13 -3 -13 6 0 10 13 11 13
11 0 0 -13 1 -13 11 0 8 11 12 12 16 2 2 -6 9 -9 15 -6 6 4 5 10 -3 16 -10 6
-6 7 11 3 20 -5 22 -4 10 5 -13 10 -13 11 2 6 10 -3 21 1 26 10 5 9 13 17 18
17 5 1 9 7 8 13 -1 6 4 11 11 11 10 0 11 -6 2 -26 -16 -39 -27 -50 -42 -45 -8
3 -16 -4 -20 -17 -4 -12 -10 -18 -14 -13 -8 12 -61 14 -61 3 0 -5 -10 -8 -22
-6 -14 1 -22 -3 -20 -10 1 -7 -2 -13 -8 -13 -5 0 -10 6 -10 13 0 6 -5 4 -11
-6 -5 -9 -7 -21 -4 -27 6 -10 -33 -35 -42 -26 -4 3 -12 1 -20 -5 -20 -17 -16
4 6 27 38 40 67 60 80 56 8 -3 11 0 8 5 -4 6 2 18 13 28 11 10 20 14 21 9 0
-5 4 1 9 13 7 16 14 21 26 16 11 -4 15 -3 10 5 -5 9 9 26 24 27 11 0 48 44 42
49 -3 3 0 6 7 6 7 0 28 16 48 35 19 19 40 33 47 32 6 -1 10 4 8 12 -2 9 3 11
15 7 9 -4 14 -4 10 0 -9 10 33 55 44 48 5 -3 9 2 9 10 0 10 6 13 15 10 8 -4
15 -10 15 -16z m-41 -74 c-5 -6 -5 -15 -1 -20 4 -4 -1 -2 -10 5 -10 7 -15 18
-11 25 4 6 8 14 9 19 4 20 6 20 13 2 5 -11 5 -25 0 -31z m-69 -44 c0 -5 -4
-10 -8 -10 -5 0 -8 -12 -7 -27 2 -37 -4 -52 -27 -64 -16 -9 -19 -7 -16 8 2 10
-2 17 -7 16 -6 -1 -11 7 -11 18 0 17 2 18 11 5 10 -13 13 -12 23 4 9 14 8 19
-4 24 -8 3 -12 10 -9 16 4 6 10 8 15 5 5 -3 11 -1 15 5 8 13 25 13 25 0z
m-121 -123 c0 -9 -2 -8 -6 1 -2 6 -10 9 -15 6 -7 -4 -8 -2 -4 5 9 13 26 5 25
-12z m-104 -73 c13 -5 14 -9 3 -15 -11 -8 -11 -11 1 -18 7 -5 10 -14 6 -21 -5
-8 -11 -8 -17 -2 -6 6 -17 8 -24 5 -11 -4 -12 -9 -3 -19 6 -8 9 -15 5 -15 -3
-1 -9 -2 -13 -3 -17 -3 -33 -18 -28 -26 3 -4 -20 -27 -51 -50 -50 -37 -68 -46
-97 -49 -5 -1 -6 -5 -3 -9 2 -4 1 -14 -4 -21 -6 -11 -10 -9 -19 7 -8 15 -8 23
1 28 7 5 8 3 3 -6 -5 -9 -4 -11 4 -6 6 4 9 11 6 16 -3 4 3 14 12 21 15 12 16
12 10 -4 -6 -17 -4 -16 19 2 15 11 30 19 34 16 5 -3 7 2 6 10 -1 9 -6 14 -12
13 -5 -2 -8 -7 -6 -11 1 -5 -2 -7 -8 -5 -7 2 -12 8 -12 13 0 6 -3 17 -8 25 -5
10 2 22 21 38 27 22 28 22 38 4 6 -11 7 -23 3 -27 -4 -5 -1 -5 7 0 9 5 19 2
27 -9 6 -9 15 -13 18 -8 3 6 -1 13 -10 16 -8 3 -13 10 -9 15 3 5 0 13 -6 17
-8 4 -9 3 -5 -4 4 -7 2 -12 -4 -12 -7 0 -10 6 -8 12 3 7 11 13 19 13 34 1 61
17 56 35 -3 11 1 17 12 16 9 0 15 5 14 12 -3 14 -1 14 22 6z m-207 -135 c-2
-3 3 -13 11 -22 9 -11 10 -17 2 -17 -6 0 -11 5 -11 10 0 6 -14 -5 -31 -24 -17
-20 -28 -40 -25 -45 3 -5 -1 -14 -9 -21 -17 -14 -21 -35 -5 -25 6 3 10 1 10
-4 0 -14 -13 -14 -28 1 -13 13 -13 12 -16 -32 0 -11 -5 -19 -11 -17 -5 1 -8 9
-7 17 2 8 4 25 4 37 0 15 5 20 18 18 14 -3 18 2 15 16 -3 12 0 17 7 13 7 -4 8
-3 4 4 -11 18 -29 14 -22 -4 3 -8 2 -12 -4 -9 -5 3 -17 -6 -26 -20 -9 -13 -20
-23 -24 -20 -5 3 -10 1 -12 -5 -2 -6 -8 -6 -18 0 -13 8 -12 10 3 10 10 0 16 4
12 9 -3 6 6 18 21 28 14 10 37 31 52 46 14 15 32 25 39 23 7 -3 13 -1 13 5 0
14 23 39 33 36 5 -1 7 -5 5 -8z m-124 -157 c-6 -4 -10 -18 -9 -32 2 -30 -59
-99 -68 -76 -4 9 -1 14 6 12 7 -1 9 -1 4 1 -4 3 -5 9 -2 14 4 5 -1 6 -10 2
-15 -5 -15 -3 -4 16 8 11 17 21 22 21 4 0 6 -4 3 -8 -12 -20 10 -28 29 -9 11
11 14 17 7 13 -15 -9 -12 15 3 26 5 4 0 6 -12 5 -17 -1 -19 -4 -11 -14 12 -14
8 -16 -16 -7 -9 3 -14 10 -11 14 3 5 1 11 -4 15 -6 3 -8 -3 -6 -14 3 -19 -26
-39 -48 -33 -4 1 -3 -6 3 -17 12 -23 13 -34 2 -27 -4 2 -14 0 -22 -5 -13 -8
-13 -10 0 -19 8 -5 13 -10 10 -11 -3 0 -13 -2 -23 -4 -13 -2 -17 1 -13 10 3 8
0 17 -6 21 -7 5 -8 2 -3 -6 5 -8 4 -11 -1 -7 -6 3 -11 -3 -11 -14 -1 -11 2
-17 8 -14 5 4 9 1 9 -4 0 -13 -3 -13 -24 -5 -9 3 -13 11 -10 16 4 6 -2 5 -14
-1 -12 -6 -24 -17 -28 -24 -6 -9 -3 -8 8 1 22 18 60 -1 51 -25 -5 -13 -2 -15
13 -9 15 6 15 3 -5 -18 -17 -18 -28 -23 -36 -16 -14 12 -38 -10 -33 -30 3 -11
-16 -19 -49 -22 -7 -1 -13 -5 -13 -10 0 -21 -16 -43 -33 -46 -5 0 -15 -9 -23
-19 -7 -10 -14 -13 -14 -8 0 6 -7 -1 -16 -15 -13 -22 -14 -22 -9 -3 3 12 1 24
-5 28 -6 3 -8 10 -5 15 3 5 0 12 -7 16 -7 4 -10 4 -6 -1 11 -12 -11 -35 -27
-29 -22 9 -15 -37 9 -65 12 -13 16 -21 9 -17 -7 3 -23 -6 -37 -21 -14 -15 -26
-22 -26 -16 0 7 5 15 10 18 6 4 7 11 4 17 -4 6 -2 8 3 5 6 -4 14 0 17 8 4 13
2 13 -14 5 -12 -7 -21 -7 -25 0 -5 9 6 14 25 12 3 0 6 8 6 18 0 10 -4 18 -9
17 -5 -1 -12 5 -15 13 -2 8 -1 12 2 8 9 -7 28 8 92 71 24 24 44 39 44 32 0 -6
7 -11 15 -11 8 0 15 5 15 11 0 5 -4 7 -10 4 -5 -3 -10 -3 -10 1 0 7 28 33 94
87 21 18 54 48 73 67 30 31 38 34 31 13 -2 -5 -6 -7 -10 -5 -5 1 -8 -2 -8 -8
0 -5 4 -10 8 -10 14 0 31 22 26 34 -3 7 5 21 17 32 13 10 19 13 15 7 -4 -7 -2
-13 3 -13 6 0 11 8 11 18 0 27 9 32 35 22 16 -6 29 -4 41 5 11 7 21 11 24 9 2
-3 0 -8 -6 -12z m-93 -65 c-6 -8 -9 -17 -6 -21 3 -3 -1 -1 -7 4 -10 9 -10 13
2 20 21 13 24 12 11 -3z m-17 -84 c-20 -14 -41 -6 -26 9 6 6 8 17 5 25 -5 11
0 10 16 -3 20 -17 20 -20 5 -31z m26 37 c0 -5 -4 -10 -9 -10 -6 0 -13 5 -16
10 -3 6 1 10 9 10 9 0 16 -4 16 -10z m-605 -193 c1 -7 7 -11 14 -9 7 1 9 -2 6
-9 -5 -7 -15 -3 -31 12 -13 12 -21 26 -18 31 7 11 29 -7 29 -25z m195 -87 c0
-5 -9 -11 -19 -15 -11 -3 -25 -13 -33 -22 -11 -14 -11 -16 2 -8 8 4 12 5 8 1
-10 -12 -22 -8 -24 9 -1 9 8 18 22 21 16 4 23 12 20 20 -3 8 0 11 10 7 7 -3
14 -9 14 -13z m-12 -43 c7 -8 6 -18 -4 -31 -8 -11 -15 -16 -15 -10 -8 56 -3
68 19 41z"/>
<path d="M445 4930 c10 -11 20 -20 23 -20 3 0 -3 9 -13 20 -10 11 -20 20 -23
20 -3 0 3 -9 13 -20z"/>
<path d="M1565 3960 c3 -5 8 -10 11 -10 2 0 4 5 4 10 0 6 -5 10 -11 10 -5 0
-7 -4 -4 -10z"/>
<path d="M2776 3792 c-3 -5 1 -9 9 -9 8 0 12 4 9 9 -3 4 -7 8 -9 8 -2 0 -6 -4
-9 -8z"/>
<path d="M2747 3722 c5 -14 3 -15 -8 -4 -7 6 -17 12 -23 12 -5 0 -1 -6 9 -14
19 -14 45 -11 45 4 0 4 -7 10 -14 13 -11 4 -13 1 -9 -11z"/>
<path d="M2675 3701 c-15 -17 -15 -19 -1 -17 22 3 40 22 28 30 -5 3 -17 -3
-27 -13z"/>
<path d="M2476 3522 c-3 -5 1 -9 9 -9 8 0 12 4 9 9 -3 4 -7 8 -9 8 -2 0 -6 -4
-9 -8z"/>
<path d="M2430 3420 c0 -5 5 -10 10 -10 6 0 10 5 10 10 0 6 -4 10 -10 10 -5 0
-10 -4 -10 -10z"/>
<path d="M2290 3365 c-7 -9 -8 -15 -2 -15 5 0 12 7 16 15 3 8 4 15 2 15 -2 0
-9 -7 -16 -15z"/>
<path d="M2159 3188 c-14 -11 -18 -17 -9 -16 8 2 18 8 22 13 5 6 8 5 8 -3 0
-10 3 -10 15 2 8 8 15 16 15 19 0 10 -30 2 -51 -15z"/>
<path d="M2029 3143 c-13 -16 -12 -17 4 -4 9 7 17 15 17 17 0 8 -8 3 -21 -13z"/>
<path d="M1501 2686 c-9 -10 -8 -15 2 -19 8 -3 13 3 13 14 0 23 0 23 -15 5z"/>
<path d="M1425 2620 c-21 -24 -14 -36 12 -21 12 7 13 10 4 11 -11 0 -11 3 -1
15 19 22 6 18 -15 -5z"/>
<path d="M1709 2798 c-5 -19 -8 -50 -4 -46 7 7 15 48 9 48 -2 0 -4 -1 -5 -2z"/>
<path d="M1484 2608 c-4 -7 -4 -10 1 -6 4 4 15 2 24 -5 14 -11 14 -10 2 6 -16
20 -18 21 -27 5z"/>
<path d="M1455 2570 c-4 -6 -10 -8 -14 -6 -4 3 -8 -1 -8 -9 0 -13 3 -13 17 0
9 8 20 12 25 8 4 -5 5 -2 1 5 -9 15 -13 15 -21 2z"/>
<path d="M1351 2556 c-8 -10 -9 -16 -1 -21 5 -3 10 -5 11 -3 4 18 7 38 4 38
-1 0 -8 -6 -14 -14z"/>
<path d="M1330 2520 c0 -5 5 -10 10 -10 6 0 10 5 10 10 0 6 -4 10 -10 10 -5 0
-10 -4 -10 -10z"/>
<path d="M1360 2521 c0 -5 7 -12 16 -15 8 -3 12 -11 8 -17 -4 -8 -3 -9 5 -5 6
4 9 11 6 16 -3 4 1 10 7 13 7 2 9 8 5 13 -4 5 -12 2 -17 -6 -7 -10 -10 -11
-10 -2 0 6 -4 12 -10 12 -5 0 -10 -4 -10 -9z"/>
<path d="M1334 2454 c-18 -14 -18 -15 4 -4 12 6 22 13 22 15 0 8 -5 6 -26 -11z"/>
<path d="M1279 2479 c-14 -20 -24 -27 -29 -19 -5 8 -11 6 -20 -5 -11 -13 -10
-14 5 -9 14 6 16 4 10 -7 -8 -12 -6 -12 9 0 19 16 60 71 52 71 -2 0 -15 -14
-27 -31z"/>
<path d="M1171 2401 c-12 -11 -18 -21 -14 -24 4 -3 16 6 26 19 22 29 18 31
-12 5z"/>
<path d="M879 2144 c-18 -19 -27 -34 -20 -38 5 -4 8 -13 5 -20 -6 -15 -21 -16
-41 -3 -6 4 -24 -4 -40 -18 -25 -23 -26 -26 -11 -35 10 -6 15 -18 12 -28 -5
-13 -4 -14 4 -3 8 11 10 11 14 0 3 -9 6 -8 11 5 4 9 3 15 -2 11 -5 -3 -12 -1
-15 4 -3 5 1 11 9 15 8 3 18 -2 23 -10 7 -12 13 -6 27 26 13 28 21 37 27 28 5
-9 8 -10 8 -1 0 6 9 10 20 8 11 -2 18 0 15 6 -4 5 3 21 14 34 11 15 22 21 26
15 11 -18 23 -11 21 13 -1 19 -7 23 -38 23 -29 1 -44 -6 -69 -32z m51 14 c0
-9 3 -9 12 0 16 16 25 15 32 -4 5 -14 4 -14 -7 -5 -11 9 -19 4 -38 -23 -23
-34 -33 -38 -57 -23 -9 6 -5 16 15 38 30 31 43 36 43 17z m-90 -93 c0 5 2 6 5
3 3 -3 2 -13 -1 -22 -5 -13 -9 -14 -14 -6 -6 9 -13 9 -28 1 -29 -16 -38 4 -10
23 16 11 25 13 35 4 7 -6 13 -7 13 -3z"/>
<path d="M891 2130 c-20 -17 -21 -20 -5 -17 25 3 44 16 44 28 0 14 -13 10 -39
-11z"/>
<path d="M794 2054 c-18 -14 -18 -15 4 -4 12 6 22 13 22 15 0 8 -5 6 -26 -11z"/>
<path d="M167 5146 c-4 -9 -3 -15 2 -12 10 7 33 -18 26 -27 -3 -4 -2 -5 2 -2
3 3 13 -4 21 -16 11 -17 16 -18 29 -7 14 11 15 10 9 -12 -6 -19 -5 -21 3 -10
10 13 15 8 12 -12 0 -4 7 -12 17 -17 16 -9 24 -11 40 -11 4 0 1 -4 -7 -9 -9
-6 -10 -11 -2 -15 6 -4 11 -1 11 6 1 7 7 2 15 -12 7 -14 16 -24 20 -22 4 2 13
-5 21 -15 14 -17 14 -16 4 5 -6 13 -18 26 -26 29 -7 3 -12 8 -11 12 2 3 -7 16
-20 28 -13 12 -23 17 -23 11 0 -7 -14 7 -31 30 -27 37 -33 41 -47 30 -13 -11
-15 -10 -9 4 3 9 -1 22 -9 28 -8 7 -14 9 -14 4 0 -4 -6 0 -13 10 -13 17 -14
18 -20 2z"/>
<path d="M644 4728 c-4 -6 -3 -8 3 -5 6 4 13 0 17 -8 6 -17 26 -20 26 -4 0 5
-4 7 -10 4 -5 -3 -10 1 -10 9 0 19 -16 21 -26 4z"/>
<path d="M1357 4136 c-16 -13 -16 -14 -1 -20 10 -4 22 -2 28 4 7 7 6 10 -3 10
-7 0 -9 5 -6 10 8 13 4 12 -18 -4z"/>
<path d="M1664 3869 c-7 -11 26 -40 38 -33 10 7 -1 32 -17 38 -8 3 -17 1 -21
-5z m27 -16 c13 -16 12 -17 -3 -4 -10 7 -18 15 -18 17 0 8 8 3 21 -13z"/>
<path d="M265 2260 c-4 -6 -1 -9 7 -8 7 2 12 -2 11 -8 -1 -6 5 -11 13 -11 11
0 11 4 -3 19 -19 21 -20 21 -28 8z"/>
<path d="M411 2111 c-10 -6 -9 -10 3 -14 8 -3 18 -2 21 3 8 13 -9 20 -24 11z"/>
<path d="M3179 1271 c-1 -3 -2 -149 -3 -323 0 -206 3 -319 9 -320 12 -1 28 -5
35 -8 24 -9 50 -8 44 1 -4 7 2 7 17 -1 17 -10 24 -10 27 -2 2 7 10 9 20 4 22
-10 43 -9 61 2 9 6 12 5 8 -1 -9 -14 55 -12 65 2 5 7 8 6 8 0 0 -6 9 -11 20
-12 12 -1 18 3 14 9 -4 5 4 4 17 -2 17 -10 24 -10 27 -2 2 7 10 9 20 4 22 -10
43 -9 61 2 9 6 12 5 8 -1 -9 -14 55 -12 65 2 5 7 8 6 8 0 0 -6 9 -11 20 -12
12 -1 18 3 14 9 -4 5 4 4 17 -2 17 -10 24 -10 27 -1 2 6 9 8 15 4 18 -11 2617
-9 2617 2 0 7 3 7 8 0 10 -15 46 -19 37 -5 -5 9 -1 8 16 0 17 -10 24 -10 27
-2 2 7 10 9 20 4 22 -10 43 -9 61 2 9 6 12 5 8 -1 -9 -14 55 -12 65 2 5 7 8 6
8 0 0 -6 9 -11 20 -12 13 -1 18 2 14 9 -5 7 -2 8 7 3 20 -13 69 -13 69 -1 0 7
3 8 8 1 10 -14 46 -19 37 -6 -3 7 0 8 9 5 9 -3 16 -11 16 -18 0 -6 7 -3 14 7
8 10 18 17 23 15 4 -2 8 15 8 37 1 22 4 46 8 53 5 6 5 12 0 12 -4 0 -8 23 -7
52 0 40 4 52 17 54 9 1 17 -2 17 -8 0 -6 -8 -7 -17 -4 -16 5 -16 5 0 -8 23
-17 23 -24 2 -40 -15 -11 -15 -12 2 -12 16 0 18 10 19 93 0 70 -3 93 -13 93
-7 0 -13 -5 -13 -11 0 -5 6 -7 13 -3 7 5 6 0 -3 -11 -12 -15 -12 -17 -1 -10
10 5 12 4 7 -4 -4 -6 -12 -9 -17 -6 -5 4 -9 1 -9 -4 0 -6 5 -11 11 -11 8 0 7
-6 -2 -17 -8 -9 -9 -14 -3 -10 6 3 11 0 11 -7 0 -8 -5 -12 -12 -10 -7 3 -11
43 -10 118 0 63 3 112 8 109 4 -2 7 1 7 6 0 6 -4 11 -9 11 -5 0 -8 15 -8 33 0
17 -1 59 -2 93 l-1 61 -1855 0 c-1020 0 -1855 -3 -1856 -6z"/>
<path d="M6909 1180 c0 -3 -2 -15 -5 -27 -2 -13 1 -23 7 -23 8 0 8 -4 0 -13
-8 -10 -7 -17 1 -25 8 -8 8 -15 -1 -26 -8 -10 -9 -16 -1 -21 6 -4 7 -12 1 -24
-11 -19 -9 -52 2 -51 4 0 11 0 16 0 10 0 9 50 -2 68 -5 6 -4 12 1 12 13 0 8
108 -6 122 -7 7 -12 10 -13 8z m17 -36 c1 -9 0 -13 -4 -10 -3 4 -7 14 -8 22
-1 9 0 13 4 10 3 -4 7 -14 8 -22z m1 -39 c0 -8 -4 -12 -9 -9 -5 3 -6 10 -3 15
9 13 12 11 12 -6z m-1 -100 c-1 -14 -5 -27 -8 -30 -4 -5 -4 19 1 48 3 19 9 4
7 -18z"/>
<path d="M6915 742 c1 -9 -3 -23 -9 -31 -8 -11 -8 -13 1 -8 6 4 14 3 17 -2 3
-5 -1 -12 -10 -15 -15 -6 -15 -9 2 -28 16 -18 16 -20 2 -15 -11 4 -15 1 -13
-11 1 -9 -3 -20 -9 -24 -6 -4 -7 -10 -3 -15 5 -4 13 -1 18 7 9 13 10 12 5 -2
-3 -10 -1 -20 5 -23 5 -4 7 -11 3 -16 -3 -6 -16 4 -29 21 -14 20 -26 27 -30
20 -5 -8 -10 -8 -20 0 -10 8 -15 8 -20 -1 -6 -8 -10 -7 -17 2 -6 10 -7 6 -2
-11 6 -21 5 -23 -8 -13 -8 7 -18 10 -21 6 -4 -3 -7 2 -7 13 0 14 -2 16 -9 5
-5 -8 -11 -9 -15 -3 -7 11 -24 11 -43 -1 -8 -5 -13 -3 -13 5 0 9 -3 9 -10 -2
-5 -8 -10 -10 -10 -4 0 11 -49 12 -67 1 -6 -4 -14 -1 -16 5 -4 10 -6 9 -6 -1
-1 -11 -4 -11 -18 0 -15 11 -16 11 -5 -1 16 -19 16 -35 -1 -21 -8 6 -18 7 -22
3 -5 -4 -6 0 -2 10 6 16 -8 19 -30 5 -6 -4 -14 -1 -16 5 -4 10 -8 10 -15 -1
-5 -7 -12 -9 -15 -4 -7 12 -46 11 -65 0 -7 -5 -10 -13 -6 -18 3 -6 -2 -9 -12
-7 -11 2 -24 12 -31 23 -7 11 -12 14 -13 8 0 -7 -5 -13 -11 -13 -5 0 -7 5 -4
10 11 18 -19 6 -33 -12 -7 -10 -18 -18 -24 -18 -6 0 -3 9 7 20 17 19 17 19 -4
15 -30 -6 -42 -15 -35 -26 3 -6 -2 -9 -12 -7 -11 2 -24 12 -31 23 -7 11 -12
14 -13 8 0 -7 -5 -13 -11 -13 -5 0 -7 5 -4 10 11 18 -19 6 -33 -12 -7 -10 -18
-18 -24 -18 -6 0 -3 9 7 20 17 19 17 19 -4 15 -30 -6 -42 -15 -35 -26 3 -6 -2
-9 -12 -7 -11 2 -24 12 -31 23 -7 11 -12 14 -13 8 0 -7 -5 -13 -11 -13 -5 0
-7 5 -4 10 11 18 -19 6 -33 -12 -7 -10 -18 -18 -24 -18 -6 0 -3 9 7 20 17 19
17 19 -4 15 -30 -6 -42 -15 -35 -26 3 -6 -2 -9 -12 -7 -11 2 -24 12 -31 23 -7
11 -12 14 -13 8 0 -7 -5 -13 -11 -13 -5 0 -7 5 -4 10 11 18 -19 6 -33 -12 -7
-10 -18 -18 -24 -18 -6 0 -3 9 7 20 17 19 17 19 -4 15 -30 -6 -42 -15 -35 -26
3 -6 -2 -9 -12 -7 -11 2 -24 12 -31 23 -7 11 -12 14 -13 8 0 -7 -5 -13 -11
-13 -5 0 -7 5 -4 10 11 18 -19 6 -33 -12 -7 -10 -18 -18 -24 -18 -6 0 -3 9 7
20 17 19 17 19 -4 15 -30 -6 -42 -15 -35 -26 3 -6 -2 -9 -12 -7 -11 2 -24 12
-31 23 -7 11 -12 14 -13 8 0 -7 -5 -13 -11 -13 -5 0 -7 5 -4 10 11 18 -19 6
-33 -12 -7 -10 -18 -18 -24 -18 -6 0 -3 9 7 20 17 19 17 19 -4 15 -30 -6 -42
-15 -35 -26 3 -6 -2 -9 -12 -7 -11 2 -24 12 -31 23 -7 11 -12 14 -13 8 0 -7
-5 -13 -11 -13 -5 0 -7 5 -4 10 11 18 -19 6 -33 -12 -7 -10 -18 -18 -24 -18
-6 0 -3 9 7 20 17 19 17 19 -4 15 -30 -6 -42 -15 -35 -26 3 -6 -2 -9 -12 -7
-11 2 -24 12 -31 23 -7 11 -12 14 -13 8 0 -7 -5 -13 -11 -13 -5 0 -7 5 -4 10
11 18 -19 6 -33 -12 -7 -10 -18 -18 -24 -18 -6 0 -3 9 7 20 17 19 17 19 -4 15
-30 -6 -42 -15 -35 -26 3 -6 -2 -9 -12 -7 -11 2 -24 12 -31 23 -7 11 -12 14
-13 8 0 -7 -5 -13 -11 -13 -5 0 -7 5 -4 10 11 18 -19 6 -33 -12 -7 -10 -18
-18 -24 -18 -6 0 -3 9 7 20 17 19 17 19 -4 15 -30 -6 -42 -15 -35 -26 3 -6 -2
-9 -12 -7 -11 2 -24 12 -31 23 -7 11 -12 14 -13 8 0 -7 -5 -13 -11 -13 -5 0
-7 5 -4 10 11 18 -19 6 -33 -12 -7 -10 -18 -18 -24 -18 -6 0 -3 9 7 20 17 19
17 19 -4 15 -30 -6 -42 -15 -35 -26 3 -6 -2 -9 -12 -7 -11 2 -24 12 -31 23 -7
11 -12 14 -13 8 0 -7 -5 -13 -11 -13 -5 0 -7 5 -4 10 11 18 -19 6 -33 -12 -7
-10 -18 -18 -24 -18 -6 0 -3 9 7 20 17 19 17 19 -4 15 -30 -6 -42 -15 -35 -26
3 -6 -2 -9 -12 -7 -11 2 -24 12 -31 23 -7 11 -12 14 -13 8 0 -7 -5 -13 -11
-13 -5 0 -7 5 -4 10 11 18 -19 6 -33 -12 -7 -10 -18 -18 -24 -18 -6 0 -3 9 7
20 17 19 17 19 -4 15 -30 -6 -42 -15 -35 -26 3 -6 -2 -9 -12 -7 -11 2 -24 12
-31 23 -7 11 -12 14 -13 8 0 -7 -5 -13 -11 -13 -5 0 -7 5 -4 10 11 18 -19 6
-33 -12 -7 -10 -18 -18 -24 -18 -6 0 -3 9 7 20 17 19 17 19 -4 15 -30 -6 -42
-15 -35 -26 3 -6 -2 -9 -12 -7 -11 2 -24 12 -31 23 -7 11 -12 14 -13 8 0 -7
-5 -13 -11 -13 -5 0 -7 5 -4 10 11 18 -19 6 -33 -12 -7 -10 -18 -18 -24 -18
-6 0 -3 9 7 20 17 19 17 19 -4 15 -30 -6 -42 -15 -35 -26 3 -6 -2 -9 -12 -7
-11 2 -24 12 -31 23 -7 11 -12 14 -13 8 0 -7 -5 -13 -11 -13 -5 0 -7 5 -4 10
11 18 -19 6 -33 -12 -7 -10 -18 -18 -24 -18 -6 0 -3 9 7 20 17 19 17 19 -4 15
-30 -6 -42 -15 -35 -26 3 -6 -2 -9 -12 -7 -11 2 -24 12 -31 23 -7 11 -12 14
-13 8 0 -7 -5 -13 -11 -13 -5 0 -7 5 -4 10 11 18 -19 6 -33 -12 -7 -10 -18
-18 -24 -18 -6 0 -4 8 5 18 15 17 15 18 -8 18 -18 0 -22 -3 -14 -12 8 -10 5
-12 -10 -11 -12 1 -19 7 -17 13 5 13 -11 13 -31 1 -6 -4 -13 -1 -16 5 -3 10
-7 10 -20 -1 -14 -11 -17 -11 -17 0 0 11 -2 11 -10 -1 -5 -8 -10 -10 -10 -4 0
11 -49 12 -67 1 -6 -4 -14 -1 -16 5 -4 10 -6 9 -6 -1 -1 -11 -4 -11 -18 0 -15
11 -16 11 -5 -1 16 -19 16 -35 -1 -21 -8 6 -18 7 -22 3 -5 -4 -6 0 -2 10 6 16
-8 19 -30 5 -6 -4 -13 -1 -16 5 -3 10 -7 10 -20 -1 -14 -11 -17 -11 -17 0 0
11 -2 11 -10 -1 -5 -8 -10 -10 -10 -4 0 11 -49 12 -67 1 -6 -4 -14 -1 -16 5
-4 10 -6 9 -6 -1 -1 -11 -4 -11 -18 0 -15 11 -16 11 -5 -1 16 -19 16 -35 -1
-21 -8 6 -18 7 -22 3 -5 -4 -6 0 -2 10 6 16 -8 19 -30 5 -6 -4 -13 -1 -16 5
-7 18 -56 -35 -53 -56 3 -24 12 -28 26 -11 7 8 17 15 22 15 7 0 6 -5 -1 -13
-8 -10 -7 -14 4 -14 8 0 12 4 9 9 -3 4 -1 8 5 8 5 0 13 -5 17 -11 4 -7 13 -1
23 15 10 14 21 23 24 19 4 -3 -1 -16 -10 -27 l-18 -21 24 20 c23 19 24 19 18
1 -7 -18 -6 -18 19 -1 24 16 26 16 21 1 -5 -13 -3 -15 11 -7 11 6 24 6 34 0
14 -8 16 -6 13 12 -2 11 -9 27 -15 34 -9 11 -7 14 9 12 14 -1 20 -6 16 -15 -3
-8 0 -10 6 -6 7 4 9 0 5 -14 -4 -11 -2 -23 4 -27 5 -3 10 -1 10 6 0 8 5 7 17
-2 11 -10 14 -10 9 -1 -4 6 -3 12 3 12 5 0 13 -5 17 -11 4 -7 13 -1 23 15 10
14 21 23 24 19 4 -3 -1 -16 -10 -27 l-18 -21 24 20 c23 19 24 19 18 1 -7 -18
-6 -18 19 -1 24 16 26 16 21 1 -5 -13 -3 -15 11 -7 11 6 24 6 34 0 14 -8 16
-6 13 12 -2 11 -9 27 -15 34 -9 11 -7 14 9 12 14 -1 20 -6 16 -15 -3 -8 0 -10
6 -6 7 4 9 0 5 -14 -4 -11 -2 -23 4 -27 5 -3 10 -1 10 6 0 8 5 7 17 -2 11 -10
14 -10 9 -1 -9 15 6 16 20 2 7 -7 15 -2 24 15 7 14 17 25 22 25 12 0 10 -12
-7 -30 -13 -14 -12 -16 4 -16 13 0 17 5 13 16 -5 13 -4 13 12 1 22 -19 53 -21
53 -5 0 7 -6 10 -12 8 -6 -3 -12 1 -12 9 0 8 11 14 29 14 22 0 25 -3 16 -14
-8 -10 -8 -17 0 -25 9 -9 12 -9 12 1 0 11 3 11 16 1 12 -11 15 -11 12 0 -2 7
3 15 11 18 8 2 11 0 7 -6 -3 -5 1 -12 9 -15 10 -4 12 -1 8 11 -6 15 -5 15 11
3 22 -19 53 -21 53 -5 0 7 -6 10 -12 8 -6 -3 -12 1 -12 9 0 8 11 14 29 14 22
0 25 -3 16 -14 -8 -10 -8 -17 0 -25 9 -9 12 -9 12 1 0 11 3 11 16 1 12 -11 15
-11 12 0 -2 7 3 15 11 18 8 2 11 0 7 -6 -3 -5 1 -12 9 -15 10 -4 12 -1 8 11
-6 15 -5 15 11 3 22 -19 53 -21 53 -5 0 7 -6 10 -12 8 -6 -3 -12 1 -12 9 0 8
11 14 29 14 22 0 25 -3 16 -14 -8 -10 -8 -17 0 -25 9 -9 12 -9 12 1 0 11 3 11
16 1 12 -11 15 -11 12 0 -2 7 3 15 11 18 8 2 11 0 7 -6 -3 -5 1 -12 9 -15 10
-4 12 -1 8 11 -6 15 -5 15 11 3 22 -19 53 -21 53 -5 0 7 -6 10 -12 8 -6 -3
-12 1 -12 9 0 8 11 14 29 14 22 0 25 -3 16 -14 -8 -10 -8 -17 0 -25 9 -9 12
-9 12 1 0 11 3 11 16 1 12 -11 15 -11 12 0 -2 7 3 15 11 18 8 2 11 0 7 -6 -3
-5 1 -12 9 -15 10 -4 12 -1 8 11 -6 15 -5 15 11 3 22 -19 53 -21 53 -5 0 7 -6
10 -12 8 -6 -3 -12 1 -12 9 0 8 11 14 29 14 22 0 25 -3 16 -14 -8 -10 -8 -17
0 -25 9 -9 12 -9 12 1 0 11 3 11 16 1 12 -11 15 -11 12 0 -2 7 3 15 11 18 8 2
11 0 7 -6 -3 -5 1 -12 9 -15 10 -4 12 -1 8 11 -6 15 -5 15 11 3 22 -19 53 -21
53 -5 0 7 -6 10 -12 8 -6 -3 -12 1 -12 9 0 8 11 14 29 14 22 0 25 -3 16 -14
-8 -10 -8 -17 0 -25 9 -9 12 -9 12 1 0 11 3 11 16 1 12 -11 15 -11 12 0 -2 7
3 15 11 18 8 2 11 0 7 -6 -3 -5 1 -12 9 -15 10 -4 12 -1 8 11 -6 15 -5 15 11
3 22 -19 53 -21 53 -5 0 7 -6 10 -12 8 -6 -3 -12 1 -12 9 0 8 11 14 29 14 22
0 25 -3 16 -14 -8 -10 -8 -17 0 -25 9 -9 12 -9 12 1 0 11 3 11 16 1 12 -11 15
-11 12 0 -2 7 3 15 11 18 8 2 11 0 7 -6 -3 -5 1 -12 9 -15 10 -4 12 -1 8 11
-6 15 -5 15 11 3 22 -19 53 -21 53 -5 0 7 -6 10 -12 8 -6 -3 -12 1 -12 9 0 8
11 14 29 14 22 0 25 -3 16 -14 -8 -10 -8 -17 0 -25 9 -9 12 -9 12 1 0 11 3 11
16 1 12 -11 15 -11 12 0 -2 7 3 15 11 18 8 2 11 0 7 -6 -3 -5 1 -12 9 -15 10
-4 12 -1 8 11 -6 15 -5 15 11 3 22 -19 53 -21 53 -5 0 7 -6 10 -12 8 -6 -3
-12 1 -12 9 0 8 11 14 29 14 22 0 25 -3 16 -14 -8 -10 -8 -17 0 -25 9 -9 12
-9 12 1 0 11 3 11 16 1 12 -11 15 -11 12 0 -2 7 3 15 11 18 8 2 11 0 7 -6 -3
-5 1 -12 9 -15 10 -4 12 -1 8 11 -6 15 -5 15 11 3 22 -19 53 -21 53 -5 0 7 -6
10 -12 8 -6 -3 -12 1 -12 9 0 8 11 14 29 14 22 0 25 -3 16 -14 -8 -10 -8 -17
0 -25 9 -9 12 -9 12 1 0 11 3 11 16 1 12 -11 15 -11 12 0 -2 7 3 15 11 18 8 2
11 0 7 -6 -3 -5 1 -12 9 -15 10 -4 12 -1 8 11 -6 15 -5 15 11 3 22 -19 53 -21
53 -5 0 7 -6 10 -12 8 -6 -3 -12 1 -12 9 0 8 11 14 29 14 22 0 25 -3 16 -14
-8 -10 -8 -17 0 -25 9 -9 12 -9 12 1 0 11 3 11 16 1 12 -11 15 -11 12 0 -2 7
3 15 11 18 8 2 11 0 7 -6 -3 -5 1 -12 9 -15 10 -4 12 -1 8 11 -6 15 -5 15 11
3 22 -19 53 -21 53 -5 0 7 -6 10 -12 8 -6 -3 -12 1 -12 9 0 8 11 14 29 14 22
0 25 -3 16 -14 -8 -10 -8 -17 0 -25 9 -9 12 -9 12 1 0 11 3 11 16 1 12 -11 15
-11 12 0 -2 7 3 15 11 18 8 2 11 0 7 -6 -3 -5 1 -12 9 -15 10 -4 12 -1 8 11
-6 15 -5 15 11 3 22 -19 53 -21 53 -5 0 7 -6 10 -12 8 -6 -3 -12 1 -12 9 0 8
11 14 29 14 22 0 25 -3 16 -14 -8 -10 -8 -17 0 -25 9 -9 12 -9 12 1 0 11 3 11
16 1 12 -11 15 -11 12 0 -2 7 3 15 11 18 8 2 11 0 7 -6 -3 -5 1 -12 9 -15 10
-4 12 -1 8 11 -6 15 -5 15 11 3 22 -19 53 -21 53 -5 0 7 -6 10 -12 8 -6 -3
-12 1 -12 9 0 8 11 14 29 14 22 0 25 -3 16 -14 -8 -10 -8 -17 0 -25 9 -9 12
-9 12 1 0 11 3 11 16 1 12 -11 15 -11 12 0 -2 7 3 15 11 18 8 2 11 0 7 -6 -3
-5 1 -12 9 -15 10 -4 12 -1 8 11 -6 15 -5 15 11 3 22 -19 53 -21 53 -5 0 7 -6
10 -12 8 -6 -3 -12 1 -12 9 0 8 11 14 29 14 22 0 25 -3 16 -14 -8 -10 -8 -17
0 -25 9 -9 12 -9 12 1 0 11 3 11 16 1 12 -11 15 -11 12 0 -2 7 3 15 11 18 8 2
11 0 7 -6 -3 -5 1 -12 9 -15 10 -4 12 -1 8 11 -6 15 -5 15 11 3 22 -19 53 -21
53 -5 0 7 -6 10 -12 8 -6 -3 -12 1 -12 9 0 8 11 14 29 14 22 0 25 -3 16 -14
-8 -10 -8 -17 0 -25 9 -9 12 -9 12 1 0 11 3 11 17 0 12 -10 14 -10 9 -1 -4 7
-1 15 8 18 9 3 13 10 10 15 -3 5 -1 9 3 9 5 0 14 -9 21 -21 12 -19 12 -20 -10
-14 -13 4 -20 4 -16 0 11 -11 68 -14 62 -3 -7 11 3 10 28 -3 15 -8 19 -8 14 0
-4 6 -3 11 3 11 5 0 13 -5 17 -11 4 -7 13 -1 23 15 10 14 21 23 24 19 4 -3 -1
-16 -10 -27 l-18 -21 24 20 c23 19 24 19 18 1 -7 -18 -6 -18 19 -1 24 16 26
16 21 1 -5 -13 -3 -15 11 -7 11 6 24 6 34 0 14 -8 16 -6 13 12 -2 11 -9 27
-15 34 -9 11 -7 14 9 12 14 -1 20 -6 16 -15 -3 -8 0 -10 6 -6 7 4 9 0 5 -14
-4 -11 -2 -23 4 -27 5 -3 10 -1 10 6 0 8 5 7 17 -2 11 -10 14 -10 9 -1 -4 6
-3 12 3 12 5 0 13 -5 17 -11 4 -7 13 -1 23 15 10 14 21 23 24 19 4 -3 -1 -16
-10 -27 l-18 -21 24 20 c23 19 24 19 18 1 -7 -18 -6 -18 19 -1 22 14 26 14 21
3 -7 -18 30 -17 61 3 24 15 25 57 2 76 -13 11 -13 12 0 13 12 0 16 13 16 60 0
37 -5 61 -12 64 -7 3 -11 -3 -9 -12z m-3608 -150 c11 8 12 7 7 -5 -4 -12 -1
-15 15 -12 18 3 20 1 11 -16 -13 -23 -24 -24 -44 -3 -15 14 -18 14 -36 -8 -16
-19 -18 -20 -16 -5 1 10 9 23 17 28 8 5 10 9 6 9 -5 0 -5 5 -1 11 4 8 9 8 17
0 7 -7 14 -7 24 1z m138 -1 c-3 -2 0 -10 6 -18 6 -7 8 -13 3 -13 -5 0 -2 -5 6
-10 12 -8 10 -9 -8 -7 -26 4 -44 25 -35 41 3 5 1 6 -5 2 -6 -4 -9 -13 -6 -20
8 -21 -12 -28 -27 -9 -12 14 -12 16 0 8 11 -6 13 -4 8 9 -4 9 -3 14 2 11 5 -3
12 -2 15 3 2 4 14 8 25 8 11 0 18 -2 16 -5z m102 1 c11 8 12 7 7 -5 -4 -12 -1
-15 15 -12 18 3 20 1 12 -13 -6 -11 -22 -17 -43 -17 -29 -1 -34 3 -32 20 1 11
3 24 3 30 1 5 6 4 13 -3 8 -8 15 -9 25 0z m138 -1 c-3 -2 0 -10 6 -18 6 -7 8
-13 3 -13 -5 0 -2 -5 6 -10 12 -8 10 -9 -8 -7 -26 4 -44 25 -35 41 3 5 1 6 -5
2 -6 -4 -9 -13 -6 -20 8 -21 -12 -28 -27 -9 -12 14 -12 16 0 8 11 -6 13 -4 8
9 -4 9 -3 14 2 11 5 -3 12 -2 15 3 2 4 14 8 25 8 11 0 18 -2 16 -5z m102 1
c11 8 12 7 7 -5 -4 -12 -1 -15 15 -12 18 3 20 1 12 -13 -6 -11 -22 -17 -43
-17 -29 -1 -34 3 -32 20 1 11 3 24 3 30 1 5 6 4 13 -3 8 -8 15 -9 25 0z m228
-2 c-3 -5 -12 -10 -18 -10 -7 0 -6 4 3 10 19 12 23 12 15 0z m160 0 c-3 -5
-12 -10 -18 -10 -7 0 -6 4 3 10 19 12 23 12 15 0z m160 0 c-3 -5 -12 -10 -18
-10 -7 0 -6 4 3 10 19 12 23 12 15 0z m160 0 c-3 -5 -12 -10 -18 -10 -7 0 -6
4 3 10 19 12 23 12 15 0z m160 0 c-3 -5 -12 -10 -18 -10 -7 0 -6 4 3 10 19 12
23 12 15 0z m160 0 c-3 -5 -12 -10 -18 -10 -7 0 -6 4 3 10 19 12 23 12 15 0z
m160 0 c-3 -5 -12 -10 -18 -10 -7 0 -6 4 3 10 19 12 23 12 15 0z m160 0 c-3
-5 -12 -10 -18 -10 -7 0 -6 4 3 10 19 12 23 12 15 0z m160 0 c-3 -5 -12 -10
-18 -10 -7 0 -6 4 3 10 19 12 23 12 15 0z m160 0 c-3 -5 -12 -10 -18 -10 -7 0
-6 4 3 10 19 12 23 12 15 0z m160 0 c-3 -5 -12 -10 -18 -10 -7 0 -6 4 3 10 19
12 23 12 15 0z m160 0 c-3 -5 -12 -10 -18 -10 -7 0 -6 4 3 10 19 12 23 12 15
0z m160 0 c-3 -5 -12 -10 -18 -10 -7 0 -6 4 3 10 19 12 23 12 15 0z m160 0
c-3 -5 -12 -10 -18 -10 -7 0 -6 4 3 10 19 12 23 12 15 0z m160 0 c-3 -5 -12
-10 -18 -10 -7 0 -6 4 3 10 19 12 23 12 15 0z m183 -10 c12 -13 13 -13 8 4 -5
14 -3 16 6 10 16 -11 38 -11 55 -1 9 6 11 3 7 -7 -4 -11 0 -14 15 -11 18 3 20
1 12 -13 -10 -17 -71 -26 -71 -10 0 5 5 6 10 3 6 -3 10 -2 10 4 0 5 -9 9 -19
8 -11 0 -18 -4 -15 -8 2 -4 0 -11 -6 -14 -12 -7 -62 40 -53 49 9 8 27 2 41
-14z m207 11 c-3 -2 0 -10 6 -18 6 -7 8 -13 3 -13 -5 0 -2 -5 6 -10 12 -8 10
-9 -8 -7 -26 4 -44 25 -35 41 3 5 1 6 -5 2 -6 -4 -9 -13 -6 -20 8 -21 -12 -28
-27 -9 -12 14 -12 16 0 8 11 -6 13 -4 8 9 -4 9 -3 14 2 11 5 -3 12 -2 15 3 2
4 14 8 25 8 11 0 18 -2 16 -5z m103 -8 c4 -5 15 -9 25 -7 13 2 15 -1 8 -14 -6
-11 -23 -17 -43 -17 -35 -1 -35 -1 -29 47 1 10 32 3 39 -9z m99 -13 c4 -26
-12 -33 -28 -13 -12 14 -12 16 0 8 11 -6 13 -4 8 7 -6 16 2 32 12 23 2 -3 6
-14 8 -25z m-2914 10 c-3 -3 -15 -5 -26 -5 -17 0 -22 -6 -21 -23 1 -18 -1 -20
-13 -11 -11 10 -11 14 2 29 9 10 27 17 40 16 13 0 21 -3 18 -6z m160 0 c-3 -3
-15 -5 -26 -5 -17 0 -22 -6 -21 -23 1 -18 -1 -20 -13 -11 -11 10 -11 14 2 29
9 10 27 17 40 16 13 0 21 -3 18 -6z m160 0 c-3 -3 -15 -5 -26 -5 -17 0 -22 -6
-21 -23 1 -18 -1 -20 -13 -11 -11 10 -11 14 2 29 9 10 27 17 40 16 13 0 21 -3
18 -6z m160 0 c-3 -3 -15 -5 -26 -5 -17 0 -22 -6 -21 -23 1 -18 -1 -20 -13
-11 -11 10 -11 14 2 29 9 10 27 17 40 16 13 0 21 -3 18 -6z m160 0 c-3 -3 -15
-5 -26 -5 -17 0 -22 -6 -21 -23 1 -18 -1 -20 -13 -11 -11 10 -11 14 2 29 9 10
27 17 40 16 13 0 21 -3 18 -6z m160 0 c-3 -3 -15 -5 -26 -5 -17 0 -22 -6 -21
-23 1 -18 -1 -20 -13 -11 -11 10 -11 14 2 29 9 10 27 17 40 16 13 0 21 -3 18
-6z m160 0 c-3 -3 -15 -5 -26 -5 -17 0 -22 -6 -21 -23 1 -18 -1 -20 -13 -11
-11 10 -11 14 2 29 9 10 27 17 40 16 13 0 21 -3 18 -6z m160 0 c-3 -3 -15 -5
-26 -5 -17 0 -22 -6 -21 -23 1 -18 -1 -20 -13 -11 -11 10 -11 14 2 29 9 10 27
17 40 16 13 0 21 -3 18 -6z m160 0 c-3 -3 -15 -5 -26 -5 -17 0 -22 -6 -21 -23
1 -18 -1 -20 -13 -11 -11 10 -11 14 2 29 9 10 27 17 40 16 13 0 21 -3 18 -6z
m160 0 c-3 -3 -15 -5 -26 -5 -17 0 -22 -6 -21 -23 1 -18 -1 -20 -13 -11 -11
10 -11 14 2 29 9 10 27 17 40 16 13 0 21 -3 18 -6z m160 0 c-3 -3 -15 -5 -26
-5 -17 0 -22 -6 -21 -23 1 -18 -1 -20 -13 -11 -11 10 -11 14 2 29 9 10 27 17
40 16 13 0 21 -3 18 -6z m160 0 c-3 -3 -15 -5 -26 -5 -17 0 -22 -6 -21 -23 1
-18 -1 -20 -13 -11 -11 10 -11 14 2 29 9 10 27 17 40 16 13 0 21 -3 18 -6z
m160 0 c-3 -3 -15 -5 -26 -5 -17 0 -22 -6 -21 -23 1 -18 -1 -20 -13 -11 -11
10 -11 14 2 29 9 10 27 17 40 16 13 0 21 -3 18 -6z m160 0 c-3 -3 -15 -5 -26
-5 -17 0 -22 -6 -21 -23 1 -18 -1 -20 -13 -11 -11 10 -11 14 2 29 9 10 27 17
40 16 13 0 21 -3 18 -6z m160 0 c-3 -3 -15 -5 -26 -5 -17 0 -22 -6 -21 -23 1
-18 -1 -20 -13 -11 -11 10 -11 14 2 29 9 10 27 17 40 16 13 0 21 -3 18 -6z
m160 0 c-3 -3 -15 -5 -26 -5 -17 0 -22 -6 -21 -23 1 -18 -1 -20 -13 -11 -11
10 -11 14 2 29 9 10 27 17 40 16 13 0 21 -3 18 -6z m566 -20 c10 -14 11 -21 4
-16 -8 4 -13 2 -13 -6 -1 -7 -9 -3 -20 11 -20 23 -18 45 3 38 5 -1 17 -14 26
-27z m-2931 -6 c-1 -5 -9 -9 -16 -10 -10 -2 -11 1 -1 12 12 14 24 13 17 -2z
m42 6 c0 -5 -2 -10 -4 -10 -3 0 -8 5 -11 10 -3 6 -1 10 4 10 6 0 11 -4 11 -10z
m118 -6 c-1 -5 -9 -9 -16 -10 -10 -2 -11 1 -1 12 12 14 24 13 17 -2z m42 6 c0
-5 -2 -10 -4 -10 -3 0 -8 5 -11 10 -3 6 -1 10 4 10 6 0 11 -4 11 -10z m118 -6
c-1 -5 -9 -9 -16 -10 -10 -2 -11 1 -1 12 12 14 24 13 17 -2z m42 6 c0 -5 -2
-10 -4 -10 -3 0 -8 5 -11 10 -3 6 -1 10 4 10 6 0 11 -4 11 -10z m118 -6 c-1
-5 -9 -9 -16 -10 -10 -2 -11 1 -1 12 12 14 24 13 17 -2z m42 6 c0 -5 -2 -10
-4 -10 -3 0 -8 5 -11 10 -3 6 -1 10 4 10 6 0 11 -4 11 -10z m118 -6 c-1 -5 -9
-9 -16 -10 -10 -2 -11 1 -1 12 12 14 24 13 17 -2z m42 6 c0 -5 -2 -10 -4 -10
-3 0 -8 5 -11 10 -3 6 -1 10 4 10 6 0 11 -4 11 -10z m118 -6 c-1 -5 -9 -9 -16
-10 -10 -2 -11 1 -1 12 12 14 24 13 17 -2z m42 6 c0 -5 -2 -10 -4 -10 -3 0 -8
5 -11 10 -3 6 -1 10 4 10 6 0 11 -4 11 -10z m118 -6 c-1 -5 -9 -9 -16 -10 -10
-2 -11 1 -1 12 12 14 24 13 17 -2z m42 6 c0 -5 -2 -10 -4 -10 -3 0 -8 5 -11
10 -3 6 -1 10 4 10 6 0 11 -4 11 -10z m118 -6 c-1 -5 -9 -9 -16 -10 -10 -2
-11 1 -1 12 12 14 24 13 17 -2z m42 6 c0 -5 -2 -10 -4 -10 -3 0 -8 5 -11 10
-3 6 -1 10 4 10 6 0 11 -4 11 -10z m118 -6 c-1 -5 -9 -9 -16 -10 -10 -2 -11 1
-1 12 12 14 24 13 17 -2z m42 6 c0 -5 -2 -10 -4 -10 -3 0 -8 5 -11 10 -3 6 -1
10 4 10 6 0 11 -4 11 -10z m118 -6 c-1 -5 -9 -9 -16 -10 -10 -2 -11 1 -1 12
12 14 24 13 17 -2z m42 6 c0 -5 -2 -10 -4 -10 -3 0 -8 5 -11 10 -3 6 -1 10 4
10 6 0 11 -4 11 -10z m118 -6 c-1 -5 -9 -9 -16 -10 -10 -2 -11 1 -1 12 12 14
24 13 17 -2z m42 6 c0 -5 -2 -10 -4 -10 -3 0 -8 5 -11 10 -3 6 -1 10 4 10 6 0
11 -4 11 -10z m118 -6 c-1 -5 -9 -9 -16 -10 -10 -2 -11 1 -1 12 12 14 24 13
17 -2z m42 6 c0 -5 -2 -10 -4 -10 -3 0 -8 5 -11 10 -3 6 -1 10 4 10 6 0 11 -4
11 -10z m118 -6 c-1 -5 -9 -9 -16 -10 -10 -2 -11 1 -1 12 12 14 24 13 17 -2z
m42 6 c0 -5 -2 -10 -4 -10 -3 0 -8 5 -11 10 -3 6 -1 10 4 10 6 0 11 -4 11 -10z
m118 -6 c-1 -5 -9 -9 -16 -10 -10 -2 -11 1 -1 12 12 14 24 13 17 -2z m42 6 c0
-5 -2 -10 -4 -10 -3 0 -8 5 -11 10 -3 6 -1 10 4 10 6 0 11 -4 11 -10z m118 -6
c-1 -5 -9 -9 -16 -10 -10 -2 -11 1 -1 12 12 14 24 13 17 -2z m42 6 c0 -5 -2
-10 -4 -10 -3 0 -8 5 -11 10 -3 6 -1 10 4 10 6 0 11 -4 11 -10z m118 -6 c-1
-5 -9 -9 -16 -10 -10 -2 -11 1 -1 12 12 14 24 13 17 -2z"/>
<path d="M3306 558 c3 -4 9 -8 15 -8 5 0 9 4 9 8 0 5 -7 9 -15 9 -8 0 -12 -4
-9 -9z"/>
<path d="M3433 565 c0 -8 4 -12 9 -9 5 3 6 10 3 15 -9 13 -12 11 -12 -6z"/>
<path d="M3516 567 c3 -10 9 -15 12 -12 3 3 0 11 -7 18 -10 9 -11 8 -5 -6z"/>
<path d="M3546 558 c3 -4 9 -8 15 -8 5 0 9 4 9 8 0 5 -7 9 -15 9 -8 0 -12 -4
-9 -9z"/>
<path d="M3673 565 c0 -8 4 -12 9 -9 5 3 6 10 3 15 -9 13 -12 11 -12 -6z"/>
<path d="M3756 567 c3 -10 9 -15 12 -12 3 3 0 11 -7 18 -10 9 -11 8 -5 -6z"/>
<path d="M3786 558 c3 -4 9 -8 15 -8 5 0 9 4 9 8 0 5 -7 9 -15 9 -8 0 -12 -4
-9 -9z"/>
<path d="M6426 565 c4 -8 11 -15 16 -15 6 0 5 6 -2 15 -7 8 -14 15 -16 15 -2
0 -1 -7 2 -15z"/>
<path d="M6506 558 c3 -4 9 -8 15 -8 5 0 9 4 9 8 0 5 -7 9 -15 9 -8 0 -12 -4
-9 -9z"/>
<path d="M6633 565 c0 -8 4 -12 9 -9 5 3 6 10 3 15 -9 13 -12 11 -12 -6z"/>
<path d="M6716 567 c3 -10 9 -15 12 -12 3 3 0 11 -7 18 -10 9 -11 8 -5 -6z"/>
<path d="M6746 558 c3 -4 9 -8 15 -8 5 0 9 4 9 8 0 5 -7 9 -15 9 -8 0 -12 -4
-9 -9z"/>
<path d="M6873 565 c0 -8 4 -15 9 -15 4 0 8 4 8 9 0 6 -4 12 -8 15 -5 3 -9 -1
-9 -9z"/>
<path d="M3235 599 c-4 -6 -5 -12 -2 -15 2 -3 7 2 10 11 7 17 1 20 -8 4z"/>
<path d="M3950 598 c0 -4 4 -8 9 -8 6 0 12 4 15 8 3 5 -1 9 -9 9 -8 0 -15 -4
-15 -9z"/>
<path d="M4110 598 c0 -4 4 -8 9 -8 6 0 12 4 15 8 3 5 -1 9 -9 9 -8 0 -15 -4
-15 -9z"/>
<path d="M4270 598 c0 -4 4 -8 9 -8 6 0 12 4 15 8 3 5 -1 9 -9 9 -8 0 -15 -4
-15 -9z"/>
<path d="M4430 598 c0 -4 4 -8 9 -8 6 0 12 4 15 8 3 5 -1 9 -9 9 -8 0 -15 -4
-15 -9z"/>
<path d="M4590 598 c0 -4 4 -8 9 -8 6 0 12 4 15 8 3 5 -1 9 -9 9 -8 0 -15 -4
-15 -9z"/>
<path d="M4750 598 c0 -4 4 -8 9 -8 6 0 12 4 15 8 3 5 -1 9 -9 9 -8 0 -15 -4
-15 -9z"/>
<path d="M4910 598 c0 -4 4 -8 9 -8 6 0 12 4 15 8 3 5 -1 9 -9 9 -8 0 -15 -4
-15 -9z"/>
<path d="M5070 598 c0 -4 4 -8 9 -8 6 0 12 4 15 8 3 5 -1 9 -9 9 -8 0 -15 -4
-15 -9z"/>
<path d="M5230 598 c0 -4 4 -8 9 -8 6 0 12 4 15 8 3 5 -1 9 -9 9 -8 0 -15 -4
-15 -9z"/>
<path d="M5390 598 c0 -4 4 -8 9 -8 6 0 12 4 15 8 3 5 -1 9 -9 9 -8 0 -15 -4
-15 -9z"/>
<path d="M5550 598 c0 -4 4 -8 9 -8 6 0 12 4 15 8 3 5 -1 9 -9 9 -8 0 -15 -4
-15 -9z"/>
<path d="M5710 598 c0 -4 4 -8 9 -8 6 0 12 4 15 8 3 5 -1 9 -9 9 -8 0 -15 -4
-15 -9z"/>
<path d="M5870 598 c0 -4 4 -8 9 -8 6 0 12 4 15 8 3 5 -1 9 -9 9 -8 0 -15 -4
-15 -9z"/>
<path d="M6030 598 c0 -4 4 -8 9 -8 6 0 12 4 15 8 3 5 -1 9 -9 9 -8 0 -15 -4
-15 -9z"/>
<path d="M6190 598 c0 -4 4 -8 9 -8 6 0 12 4 15 8 3 5 -1 9 -9 9 -8 0 -15 -4
-15 -9z"/>
<path d="M6350 598 c0 -4 4 -8 9 -8 6 0 12 4 15 8 3 5 -1 9 -9 9 -8 0 -15 -4
-15 -9z"/>
</g>
</svg>
